<?xml version="1.0" encoding="iso-8859-1"?>
<!-- Generator: Adobe Illustrator 25.4.1, SVG Export Plug-In . SVG Version: 6.00 Build 0)  -->
<svg version="1.1" xmlns="http://www.w3.org/2000/svg" xmlns:xlink="http://www.w3.org/1999/xlink" x="0px" y="0px"
	 viewBox="0 0 64 64" style="enable-background:new 0 0 64 64;" xml:space="preserve">
<g id="Layer_1">
</g>
<g id="&#x421;&#x43B;&#x43E;&#x439;_2">
</g>
<g id="&#x421;&#x43B;&#x43E;&#x439;_3">
</g>
<g id="&#x421;&#x43B;&#x43E;&#x439;_4">
</g>
<g id="&#x421;&#x43B;&#x43E;&#x439;_5">
	<g>
		<linearGradient id="SVGID_1_" gradientUnits="userSpaceOnUse" x1="31.8872" y1="3.1765" x2="31.8872" y2="59.7335">
			<stop  offset="0" style="stop-color:#1A6DFF"/>
			<stop  offset="1" style="stop-color:#C822FF"/>
		</linearGradient>
		<path style="fill:url(#SVGID_1_);" d="M27,44c0,0-7.929-5.576-8.767-5.995c-0.879-0.518-1.375-0.733-1.559-0.805
			C16.059,37.118,16.278,35.038,16,34c-0.439-1.644-0.678-1.565,0.5-2.067c0.645-0.225,0.753-0.513,0.788-0.608
			c0.211-0.561-0.168-1.43-0.318-1.689l-0.026-0.049l-1.981-3.963l0.199-0.399c0.174-0.348,1.615-3.207,2.597-4.413
			c0.18-1.941,1.728-4.314,1.914-4.594l0.123-0.184l4.936-2.679l20.325,2.948l1.152,3.18l-0.432,0.538l1.079,0.424l-0.023,0.631
			c-0.001,0.072-0.023,1.943,1.647,3.666l0.218,0.225l0.03,0.31c0.419,4.33-0.824,5.973-0.968,6.146l-0.142,0.171L46,40
			C46,40,27.737,44,27,44z"/>
	</g>
	
		<linearGradient id="SVGID_00000128466833187130203220000016270550911152412843_" gradientUnits="userSpaceOnUse" x1="31.9907" y1="1.7016" x2="31.9907" y2="47.7703">
		<stop  offset="0" style="stop-color:#6DC7FF"/>
		<stop  offset="0.4917" style="stop-color:#AAB9FF"/>
		<stop  offset="1" style="stop-color:#E6ABFF"/>
	</linearGradient>
	<path style="fill:url(#SVGID_00000128466833187130203220000016270550911152412843_);" d="M47.477,33.463l0.82-0.879l1.482-5.877
		c0,0-2.351-0.524-2.657-4.524c-2.588-1.086-1.294-1.037-1.294-1.037l0.494-0.691l-0.494-3.259l-6.035,2.347
		c-0.267,0.104-0.565,0.088-0.819-0.043L38,19v0.555c0,0.412-0.253,0.783-0.638,0.932l-9.313,3.622v-0.988h0.988l0.988-0.988v-0.988
		l0.634-0.231c0.662-0.241,1.149-0.816,1.281-1.508c0.033-0.173,0.057-0.295,0.06-0.295c0.059,0,0.988-0.928,0.988-0.928h0.988
		v0.988l0.988-0.988l1.975-0.988v-0.988h1.975v0.988l0.402-0.402c0.375-0.375,0.884-0.586,1.414-0.586h3.448l-3.289-1.975L34.519,12
		l-7.457,1.245v0.988h-2.963l-4.227,2.617l-2.687,3.309h0.988l0.988-0.988h0.988l0.988-0.988l2.143,0.089l1.807-1.077h3.951
		l0.988-0.988l-0.988,1.975l-3.951,0.988h-0.988l-2.963,0.988h-0.988l-1.975,1.975h-0.988l-1.294,1.235l-0.682,1.728v4.938h0.988
		v0.988L18,32v-2l2.148-0.952l1.975-2.963l-0.988-0.988l3.951,0.988l-1.975-1.975c0,0,0.988-0.988,0-1.975
		c1.482,0.741,1.857,0.928,1.946,0.968l-0.958-0.968l3.951-1.975l-0.988,2.963v0.988h-0.988l1.975,0.988c0,0,0.988,0.988,0,1.975
		l1.975,0.988c0,0,0.286,3.694-1.343,4.81c3.674-1.719,4.306-1.847,4.306-1.847h0.988l-4.938,4.938l-0.241,0.483
		c-0.457,0.915-1.392,1.493-2.415,1.493h-6.116c-0.895,0-1.749-0.362-2.361-1.014c-0.585-0.623-1.251-1.57-1.707-2.937
		c0,0-0.988,1.975-1.975,1.975C14.221,37.937,14.012,39,15,39c0.988,0.988,1.197-0.075,1.197-0.075s-0.988,0.988,0,0.988
		s1.975,2.963,1.975,2.963s1.975,0,2.963-0.988c0.988,0.988,2.538,2.963,2.538,2.963l-0.563,1.975c0,0-0.849,1.333,0.563,0.662
		c0.425,1.314,0,2.924,0,2.924l1.412,1.353h0.988c0,0-0.988-1.975,0-2.963c-0.988,0-0.988,0-0.988,0v-0.988l0.988-0.988v-0.612
		L27,46l0.062,0.826L28,47l1.037-1.162c0,0,0.988,0,0.988,0.988c0.219,0-0.988,1.975-0.988,1.975l0.988,0.988
		c0,0-0.988,0.988,0,1.975c0,0.988,0,1.975,0,1.975l0.988-0.711L32,52.752v-0.988c0,0,1.975,0,0.988-0.988
		c0-0.988,0.988-1.975,0.988-1.975l-0.988-0.988v-0.988l1.975-0.988L36,46l-1.037,0.826l0.988,0.988h-0.988v0.988l2.963,2.963h0.988
		v-1.975c0,0,0.988-1.975,0.988-3.951c-0.988,0-0.988,0.988-0.988,0.988L38,42l-0.074-2.088l0.988,4.938h0.988l0.988-1.975L43,42
		c0,0-2-1.012-2-2s1.865-1.075,1.865-1.075s0.988,0.988,0,2.963c0.988,0.988,0.988,0.988,0.988,0.988l0.988,0.988l0.237,0.988h0.751
		l0.988-2.963V40.9l2.963-2.963v-1.205l-1.975-0.77L47.477,33.463z M35.951,41.888h-1.975c0,0-0.988-1.975-0.988-2.963
		c-0.988,0.988-1.126,2.963-1.126,2.963l-1.458,0.057c-0.762,0.03-1.392-0.587-1.378-1.349l0.012-0.684l0.988-1.975l0.849-0.553
		l0.138-1.422H32l0.988-0.988l0.988,0.988L36,39.912L34.963,40.9L35.951,41.888z M45.966,34.974l-0.138,0.988l-1.975,0.988
		c0,0-3.012,0.988-5.452,0c-0.671-0.271-1.232-0.541-1.693-0.791c-0.574-0.311-0.342-1.184,0.311-1.184h2.884l-3.586-0.717
		c-0.573-0.115-0.784-0.825-0.365-1.233L37,32l2-2l0.902,0.035l3.779-3.779c0.428-0.428,1.16-0.125,1.16,0.48v4.592l0.553,1.541
		l0.435,1.116l-2.963,0.988H45.966z"/>
	
		<linearGradient id="SVGID_00000039133241385211320600000005946338073973886112_" gradientUnits="userSpaceOnUse" x1="32.52" y1="14.1199" x2="32.52" y2="55.975">
		<stop  offset="0" style="stop-color:#1A6DFF"/>
		<stop  offset="1" style="stop-color:#C822FF"/>
	</linearGradient>
	<path style="fill:url(#SVGID_00000039133241385211320600000005946338073973886112_);" d="M35.95,41.89h-1.97
		c0,0-0.98-1.9-0.98-2.89c-0.99,0.99-1.14,2.89-1.14,2.89L30,41l-0.96-1.09l0.98-1.97l0.85-0.56l0.14-1.42H32l0.99-0.99l0.99,0.99
		L36,39.91L35,41L35.95,41.89z"/>
	<g>
		
			<linearGradient id="SVGID_00000100362536992986073990000006112144999373755275_" gradientUnits="userSpaceOnUse" x1="32.023" y1="1.7362" x2="32.023" y2="62.5167">
			<stop  offset="0" style="stop-color:#1A6DFF"/>
			<stop  offset="1" style="stop-color:#C822FF"/>
		</linearGradient>
		<path style="fill:url(#SVGID_00000100362536992986073990000006112144999373755275_);" d="M31.784,54.74h-1.574
			c-0.603,0-1.115-0.442-1.203-1.039l-0.332-2.265C28.42,50.678,29,50,28,49c-0.013-0.42,0.997-1.712,1-2l-2.034,0.38l-0.091,3.632
			c-0.02,0.782-0.762,1.342-1.52,1.146l-1.629-0.421c-0.358-0.093-0.654-0.343-0.805-0.68l-0.839-1.872
			c-0.055-0.122-0.129-0.234-0.22-0.332l-0.625-0.671c-0.288-0.309-0.395-0.744-0.283-1.151l0.805-2.927l-0.747-0.854
			c-0.603,0.222-1.476,1.037-2.226,1.473c-0.392,0.227-0.874,0.224-1.26-0.014l-0.201-0.124c-0.535-0.331-0.73-1.015-0.448-1.578
			l0.227-0.454c0.194-0.411,0.388-1.188-0.553-1.658c-0.986-0.581-1.543-0.822-1.749-0.903c-0.69-0.093-1.249-0.782-1.561-1.947
			c-0.492-1.845,0.043-3.4,1.364-3.964c0.724-0.253,0.845-0.576,0.884-0.683c0.236-0.63-0.188-1.604-0.356-1.896l-0.029-0.055
			l-1.493-2.986c-0.463-0.927-0.452-2.019,0.035-2.934c0.64-1.201,1.547-2.833,2.187-3.689c0.118-0.158,0.192-0.335,0.221-0.531
			c0.317-2.118,1.913-4.563,2.113-4.863l0.138-0.206l5.268-2.86c0.178-0.097,0.377-0.147,0.58-0.147h1.857v0
			c0.414-0.775,1.113-1.361,1.955-1.614c1.852-0.557,5.3-1.338,8.28-0.588c0.165,0.032,5.153,1.058,8.338,4.14
			c0.032,0.031,0.067,0.059,0.105,0.084l1.627,1.064c0.22,0.144,0.388,0.356,0.477,0.603l1.155,3.187l-0.485,0.604l0.783,0.782
			c0.246,0.246,0.394,0.569,0.441,0.913c0.101,0.754,0.471,2.221,1.811,3.603l0.244,0.252l0.033,0.348
			c0.47,4.859-0.925,6.703-1.086,6.897L49.528,33.7l-0.904,0.372l0.118,0.572c0.081,0.396,0.354,0.725,0.728,0.879l0.579,0.238
			c0.386,0.159,0.663,0.504,0.735,0.915l0.181,1.034c0.072,0.41-0.071,0.828-0.379,1.108l-2.373,2.161
			c-0.253,0.23-0.397,0.557-0.397,0.899v0.693c0,0.091-0.015,0.181-0.043,0.268l-0.795,2.391c-0.102,0.306-0.321,0.56-0.61,0.704
			l-1.519,0.759c-0.912,0.456-1.947-0.347-1.732-1.344l0.179-0.829c0.087-0.404-0.037-0.824-0.329-1.116l-0.554-0.554l0.027,0.279
			l-2.208,3.328c-0.158,0.239-0.227,0.526-0.195,0.811l0.188,1.635c0.009,0.078,0.01,0.157,0.004,0.235l-0.217,2.741
			c-0.05,0.632-0.578,1.12-1.212,1.12h-1.372c-0.486,0-0.925-0.29-1.117-0.736l-1.211-2.823c-0.013-0.031-0.025-0.062-0.036-0.094
			l-0.495-1.481l0.143,1.502l-0.398,0.667c-0.091,0.153-0.132,0.331-0.117,0.508l0.067,0.766c0.033,0.377-0.188,0.73-0.542,0.866
			l-0.177,0.068C33.217,52.369,33,52.684,33,53.036v0.489C33,54.196,32.456,54.74,31.784,54.74z M30.889,53H31v-0.84
			c0-0.503,0.31-0.954,0.779-1.135l0.417-0.16l-0.071-0.827L33,49l-0.536-1.931c-0.051-0.542,0.264-1.052,0.772-1.249l1.191-0.461
			c0.648-0.251,1.374,0.092,1.592,0.752l0.913,2.757c0.011,0.032,0.023,0.065,0.036,0.096l0.977,2.284h0.131l0.144-1.839
			c0.006-0.078,0.005-0.156-0.004-0.233c0,0,0.523-3.437-0.216-4.176c-1-1,0-5,0-5c0.347,0.085,1,4,1,4l2-2h1l-1-1v-1
			c0.03-0.184-1.08-0.76-1-1c0.088-0.264,1.635-0.317,1.635-0.317C43,39,43.176,38.724,43.36,39.484l0.455,1.877
			c0.052,0.216,0.163,0.413,0.319,0.57l1.422,1.431l0.26-0.785v-1.404c0-0.341,0.143-0.666,0.394-0.896l2.71-2.485l-0.032-0.186
			l-1.163-0.481c-0.373-0.154-0.645-0.484-0.726-0.88l-0.466-2.279c-0.117-0.571,0.188-1.144,0.726-1.367l0.514-0.213
			c0.326-0.135,0.576-0.398,0.688-0.733c0.235-0.704,0.498-1.979,0.381-4.006c-0.015-0.267-0.129-0.527-0.298-0.735
			c-1.075-1.326-1.541-2.674-1.744-3.641c-0.085-0.408-0.359-0.748-0.747-0.901l-0.327-0.129c-0.761-0.3-1.014-1.252-0.503-1.891
			l0.034-0.043c0.264-0.33,0.338-0.774,0.195-1.171l-0.317-0.88c-0.088-0.243-0.251-0.453-0.465-0.597l-1.379-0.928
			c-2.754-2.772-7.442-3.741-7.489-3.751c-2.476-0.63-5.464,0.03-7.136,0.523c-0.374,0.11-0.618,0.464-0.599,0.854v0
			c0.024,0.484-0.362,0.89-0.847,0.89h-2.558c-0.204,0-0.404,0.051-0.583,0.149l-4.093,2.236c-0.187,0.102-0.345,0.249-0.455,0.432
			C18.932,19.074,18,20.888,18,22.06v0.417l-0.293,0.295c-0.517,0.521-1.537,2.315-2.305,3.778c-0.18,0.343-0.18,0.751-0.008,1.098
			l1.487,2.995c0.176,0.313,1.062,2.015,0.487,3.583c-0.223,0.606-0.758,1.422-2.042,1.87c0.003,0.001-0.143,0.064-0.219,0.399
			c-0.082,0.361-0.033,0.791,0.056,1.148c0.089,0.355,0.354,0.636,0.688,0.786c0.365,0.164,0.908,0.437,1.657,0.883
			c1.24,0.622,1.7,1.64,1.743,2.608c0.326-0.099,1.028-0.361,1.578-0.571c0.459-0.175,0.976-0.044,1.298,0.326l1.418,1.632
			c0.266,0.306,0.362,0.726,0.255,1.117l-0.45,1.647c-0.081,0.298-0.046,0.615,0.098,0.888L24,48h1l0.677-2.032
			C25.864,45.408,25.417,43.914,26,44h0.504c0.687,0,1.134,0.723,0.827,1.338L27,46l0,0c0.494-0.068,1-1,2-1l1,1h1l-1,2l0.659,1.813
			c-0.337,0.279-0.138,1.093-0.07,1.279l0.052,0.205L30.889,53z"/>
	</g>
	
		<linearGradient id="SVGID_00000021091416356729493390000012336777315966542760_" gradientUnits="userSpaceOnUse" x1="40.5" y1="-1.9114" x2="40.5" y2="70.4823">
		<stop  offset="0" style="stop-color:#6DC7FF"/>
		<stop  offset="0.4917" style="stop-color:#AAB9FF"/>
		<stop  offset="1" style="stop-color:#E6ABFF"/>
	</linearGradient>
	<path style="fill:url(#SVGID_00000021091416356729493390000012336777315966542760_);" d="M38,32l2.432-0.278L43,30l-0.903,2
		l-0.057,0.052c-0.643,0.586-1.552,0.778-2.376,0.503L38,32z"/>
	
		<linearGradient id="SVGID_00000039112133637636783390000007043340383908204942_" gradientUnits="userSpaceOnUse" x1="22.247" y1="-1.9114" x2="22.247" y2="70.4823">
		<stop  offset="0" style="stop-color:#6DC7FF"/>
		<stop  offset="0.4917" style="stop-color:#AAB9FF"/>
		<stop  offset="1" style="stop-color:#E6ABFF"/>
	</linearGradient>
	<path style="fill:url(#SVGID_00000039112133637636783390000007043340383908204942_);" d="M20.555,30.315L22,30l1-1l0.939-1
		l-0.609,2.595c-0.209,0.89-0.803,1.642-1.621,2.051L21,33l1-2L20.555,30.315z"/>
</g>
</svg>